# xmcd
#
# Track frame offsets: 
#        150
#        600
#        1658
#        46587
#        69818
#        74167
#        94417
#        96203
#        96653
#        99388
#        100278
#        102946
#        135489
#        149287
#        152544
#        155641
#        156376
#        173002
#        178109
#        200053
#        203728
#        206731
#        218434
#        226600
#        228307
#        228987
#        240618
#        259469
#        265372
#        270873
#
# Disc length: 4113 seconds
#
# Revision: 0
# Processed by: cddbd v1.5.2PL0 Copyright (c) Steve Scherf et al.
# Submitted via: ExactAudioCopy v0.95b4
#
DISCID=98100f1e
DTITLE=The Beatles  - AB  Road - Complete Purple Chick Set v1.1 Jan.06
DTITLE=Various Artist - D4  FLAC
DYEAR=1900
DGENRE=
TTITLE0=Don't Let Me Down 6.71
TTITLE1=Slate Announcement
TTITLE2=Don't Let Me Down 6.72
TTITLE3=Don't Let Me Down 6.73
TTITLE4=Don't Let Me Down 6.74
TTITLE5=Don't Let Me Down 6.75
TTITLE6=Don't Let Me Down 6.76
TTITLE7=Don't Let Me Down 6.77
TTITLE8=Don't Let Me Down 6.78
TTITLE9=Don't Let Me Down 6.79
TTITLE10=Don't Let Me Down 6.80
TTITLE11=Don't Let Me Down 6.81
TTITLE12=Don't Let Me Down 6.82
TTITLE13=Send Me Some Loving 6.83a
TTITLE14=Don't Let Me Down 6.83b
TTITLE15=Don't Let Me Down 6.84
TTITLE16=Don't Let Me Down 6.85
TTITLE17=Don't Let Me Down 6.86
TTITLE18=Don't Let Me Down 6.87
TTITLE19=Two Of Us 6.88
TTITLE20=Two Of Us 6.89
TTITLE21=Two Of Us 6.90
TTITLE22=Two Of Us 6.91
TTITLE23=Two Of Us 6.92
TTITLE24=Roll Announcement
TTITLE25=Two Of Us 6.93
TTITLE26=Two Of Us 6.94
TTITLE27=Two Of Us 6.95
TTITLE28=Two Of Us 6.96
TTITLE29=Two Of Us 6.97
EXTD=
EXTT0=
EXTT1=
EXTT2=
EXTT3=
EXTT4=
EXTT5=
EXTT6=
EXTT7=
EXTT8=
EXTT9=
EXTT10=
EXTT11=
EXTT12=
EXTT13=
EXTT14=
EXTT15=
EXTT16=
EXTT17=
EXTT18=
EXTT19=
EXTT20=
EXTT21=
EXTT22=
EXTT23=
EXTT24=
EXTT25=
EXTT26=
EXTT27=
EXTT28=
EXTT29=
PLAYORDER=
